<?xml version="1.0"?>
<svg xmlns="http://www.w3.org/2000/svg" xmlns:xlink="http://www.w3.org/1999/xlink" xmlns:svgjs="http://svgjs.com/svgjs" version="1.1" width="512" height="512" x="0" y="0" viewBox="0 0 512 512" style="enable-background:new 0 0 512 512" xml:space="preserve" class=""><g><linearGradient xmlns="http://www.w3.org/2000/svg" id="a" gradientUnits="userSpaceOnUse" x1="-5.052" x2="499.467" y1="493.052" y2="-11.467" data-name="New Gradient Swatch 1"><stop stop-opacity="1" stop-color="#146e99" offset="0"/><stop stop-opacity="1" stop-color="#146e99" offset="0"/><stop stop-opacity="1" stop-color="#146e99" offset="0"/></linearGradient><linearGradient xmlns="http://www.w3.org/2000/svg" xmlns:xlink="http://www.w3.org/1999/xlink" id="b" x1="-49.052" x2="455.467" xlink:href="#a" y1="449.052" y2="-55.467"/><linearGradient xmlns="http://www.w3.org/2000/svg" xmlns:xlink="http://www.w3.org/1999/xlink" id="c" x1="-89.052" x2="415.467" xlink:href="#a" y1="409.052" y2="-95.467"/><linearGradient xmlns="http://www.w3.org/2000/svg" xmlns:xlink="http://www.w3.org/1999/xlink" id="d" x1="-9.052" x2="495.467" xlink:href="#a" y1="489.052" y2="-15.467"/><g xmlns="http://www.w3.org/2000/svg"><path d="m496 120h-120v-56a8 8 0 0 0 -8-8h-352a8 8 0 0 0 -8 8v272a8 8 0 0 0 8 8h48v40a8 8 0 0 0 13.66 5.66l45.65-45.66h12.69v56a8 8 0 0 0 8 8h244.69l45.65 45.66a8 8 0 0 0 13.66-5.66v-40h48a8 8 0 0 0 8-8v-272a8 8 0 0 0 -8-8zm-376 208a8.008 8.008 0 0 0 -5.66 2.34l-34.34 34.35v-28.69a8 8 0 0 0 -8-8h-48v-256h336v256zm368 64h-48a8 8 0 0 0 -8 8v28.69l-34.34-34.35a8.008 8.008 0 0 0 -5.66-2.34h-240v-48h216a8 8 0 0 0 8-8v-200h112z" fill="url(#a)" data-original="url(#a)" style="" class=""/><path d="m200 176a24 24 0 1 0 24 24 24.027 24.027 0 0 0 -24-24zm0 32a8 8 0 1 1 8-8 8.009 8.009 0 0 1 -8 8z" fill="url(#b)" data-original="url(#b)" style=""/><path d="m120 176a24 24 0 1 0 24 24 24.027 24.027 0 0 0 -24-24zm0 32a8 8 0 1 1 8-8 8.009 8.009 0 0 1 -8 8z" fill="url(#c)" data-original="url(#c)" style=""/><path d="m280 176a24 24 0 1 0 24 24 24.027 24.027 0 0 0 -24-24zm0 32a8 8 0 1 1 8-8 8.009 8.009 0 0 1 -8 8z" fill="url(#d)" data-original="url(#d)" style=""/></g></g></svg>
