<?xml version="1.0"?>
<svg xmlns="http://www.w3.org/2000/svg" xmlns:xlink="http://www.w3.org/1999/xlink" xmlns:svgjs="http://svgjs.com/svgjs" version="1.1" width="512" height="512" x="0" y="0" viewBox="0 0 74 74" style="enable-background:new 0 0 512 512" xml:space="preserve" class=""><g><path xmlns="http://www.w3.org/2000/svg" d="m39.778 60h-5.556a1 1 0 0 1 -.988-.845l-1.039-6.6a15.948 15.948 0 0 1 -2.8-1.159l-5.4 3.942a1 1 0 0 1 -1.3-.1l-3.93-3.938a1 1 0 0 1 -.1-1.3l3.942-5.4a15.941 15.941 0 0 1 -1.158-2.8l-6.6-1.039a1 1 0 0 1 -.849-.983v-5.555a1 1 0 0 1 .844-.988l6.6-1.04a15.941 15.941 0 0 1 1.158-2.8l-3.942-5.4a1 1 0 0 1 .1-1.3l3.931-3.93a1 1 0 0 1 1.3-.1l5.4 3.942a15.948 15.948 0 0 1 2.8-1.159l1.039-6.6a1 1 0 0 1 .992-.848h5.556a1 1 0 0 1 .988.845l1.039 6.6a15.948 15.948 0 0 1 2.8 1.159l5.4-3.942a1 1 0 0 1 1.3.1l3.931 3.93a1 1 0 0 1 .1 1.3l-3.942 5.4a15.941 15.941 0 0 1 1.158 2.8l6.6 1.04a1 1 0 0 1 .844.988v5.556a1 1 0 0 1 -.845.988l-6.6 1.039a15.941 15.941 0 0 1 -1.158 2.8l3.942 5.4a1 1 0 0 1 -.1 1.3l-3.935 3.931a1 1 0 0 1 -1.3.1l-5.4-3.942a15.948 15.948 0 0 1 -2.8 1.159l-1.039 6.6a1 1 0 0 1 -.983.849zm-4.7-2h3.846l1.006-6.392a1 1 0 0 1 .736-.812 13.9 13.9 0 0 0 3.512-1.452 1 1 0 0 1 1.094.057l5.228 3.814 2.72-2.719-3.82-5.225a1 1 0 0 1 -.056-1.094 13.979 13.979 0 0 0 1.456-3.512 1 1 0 0 1 .813-.736l6.392-1v-3.852l-6.392-1.006a1 1 0 0 1 -.812-.736 13.979 13.979 0 0 0 -1.451-3.512 1 1 0 0 1 .056-1.094l3.809-5.229-2.715-2.715-5.229 3.815a1 1 0 0 1 -1.094.057 13.9 13.9 0 0 0 -3.512-1.457 1 1 0 0 1 -.736-.812l-1.006-6.388h-3.846l-1.006 6.392a1 1 0 0 1 -.736.813 13.9 13.9 0 0 0 -3.512 1.452 1 1 0 0 1 -1.094-.057l-5.229-3.815-2.715 2.715 3.815 5.229a1 1 0 0 1 .056 1.094 13.979 13.979 0 0 0 -1.456 3.512 1 1 0 0 1 -.812.736l-6.388 1.006v3.847l6.392 1a1 1 0 0 1 .813.736 13.979 13.979 0 0 0 1.451 3.512 1 1 0 0 1 -.056 1.094l-3.815 5.234 2.72 2.719 5.224-3.819a1 1 0 0 1 1.094-.057 13.9 13.9 0 0 0 3.512 1.457 1 1 0 0 1 .736.813z" fill="#146e99" data-original="#000000" style="" class=""/><path xmlns="http://www.w3.org/2000/svg" d="m37 45.986a8.986 8.986 0 1 1 8.986-8.986 9 9 0 0 1 -8.986 8.986zm0-15.973a6.986 6.986 0 1 0 6.986 6.987 6.994 6.994 0 0 0 -6.986-6.986z" fill="#146e99" data-original="#000000" style="" class=""/><path xmlns="http://www.w3.org/2000/svg" d="m2.621 43.569a35 35 0 0 1 65.6-22.378l-1.784.9a33 33 0 0 0 -61.85 21.1z" fill="#146e99" data-original="#000000" style="" class=""/><path xmlns="http://www.w3.org/2000/svg" d="m68 22.975-7.864-3.027.718-1.867 5.799 2.232 1.633-5.995 1.93.526z" fill="#146e99" data-original="#000000" style="" class=""/><path xmlns="http://www.w3.org/2000/svg" d="m37.057 71.989a35.031 35.031 0 0 1 -31.276-19.18l1.784-.9a33 33 0 0 0 61.851-21.099l1.964-.377a34.994 34.994 0 0 1 -34.323 41.556z" fill="#146e99" data-original="#000000" style="" class=""/><path xmlns="http://www.w3.org/2000/svg" d="m5.714 59.682-1.929-.526 2.215-8.131 7.864 3.027-.718 1.867-5.799-2.231z" fill="#146e99" data-original="#000000" style="" class=""/></g></svg>
